<svg width="960" height="294" xmlns="http://www.w3.org/2000/svg" xmlns:xlink="http://www.w3.org/1999/xlink" xml:space="preserve" overflow="hidden"><defs><clipPath id="clip0"><rect x="0" y="123" width="960" height="294"/></clipPath></defs><g clip-path="url(#clip0)" transform="matrix(1 0 0 1 0 -123)"><path d="M752.673 309.088C748.82 307.987 743.407 301.84 742.581 297.711 741.021 289.363 744.508 281.473 751.205 278.262 755.976 275.968 765.517 276.06 769.646 278.445 781.94 285.693 781.756 302.666 769.371 308.354 765.334 310.189 757.536 310.556 752.673 309.088Z" fill="#FF7A1A" transform="matrix(1 0 0 -1.00214 -14.3442 433.645)"/><path d="M50.4596 302.849C41.5603 300.464 35.5052 296.977 28.8996 290.464 22.2939 283.95 17.248 274.683 15.5966 266.151 14.3122 259.454 14.3122 61.7441 15.5966 54.955 18.4407 39.3585 31.2849 25.0463 47.799 19.0829L53.6706 16.9728 155.048 16.6975C267.16 16.4223 264.867 16.3305 276.518 22.2022 283.307 25.6885 293.399 35.4134 296.61 41.7438 297.895 44.3127 299.73 48.8999 300.647 51.8357 302.207 57.0652 302.299 62.9368 302.299 160.553 302.299 258.169 302.207 264.041 300.647 269.271 295.326 286.427 283.032 298.629 266.702 302.849 260.555 304.5 254.683 304.592 158.351 304.5 63.6708 304.5 55.9642 304.409 50.4596 302.849ZM193.765 243.949C206.792 240.463 215.233 233.398 221.38 221.013 228.628 206.15 229.362 197.71 229.362 127.342L229.362 73.3957 225.05 73.304C222.573 73.304 216.976 73.2122 212.389 73.0287 207.893 72.937 203.214 73.0287 202.113 73.2122L200.095 73.5792 199.728 133.397C199.361 196.242 199.269 196.792 195.049 206.609 192.847 211.655 188.443 216.334 183.122 219.086 178.81 221.288 177.526 221.472 167.893 221.472 155.507 221.38 148.443 219.82 139.544 215.141 132.571 211.38 121.562 202.572 117.708 197.618L115.14 194.223 114.864 133.764C114.773 100.552 114.314 73.3957 113.947 73.3957 110.644 73.304 90.6437 73.2122 88.2583 73.304L85.3225 73.3957 85.506 158.535 85.7812 243.582 99.6347 243.857 113.488 244.133 114.13 237.068C114.406 233.215 114.681 228.077 114.681 225.784 114.681 218.994 115.598 218.719 120.736 223.949 129.36 232.848 142.296 240.83 152.755 243.582 164.682 246.885 182.48 247.068 193.765 243.949Z" fill="#FF7A1A" transform="matrix(1 0 0 -1.00214 -14.3442 433.645)"/><path d="M436.246 246.243C419.548 244.408 404.777 237.343 391.016 224.407 388.355 221.93 386.061 220.095 385.786 220.371 385.511 220.646 385.052 226.059 384.685 232.389L384.135 244.041 370.006 244.041 355.969 244.041 355.969 158.26 355.969 72.3865 370.465 72.6618 384.869 72.937 385.144 133.58 385.328 194.223 388.63 197.985C393.401 203.673 404.227 212.205 410.649 215.416 418.814 219.545 426.613 221.288 437.714 221.38 448.356 221.472 452.393 220.371 458.907 215.416 462.577 212.572 466.338 205.508 468.081 198.352 468.815 195.416 469.274 174.315 469.641 133.488L470.191 72.937 484.87 72.937 499.55 72.937 499.55 132.112C499.55 195.783 499.183 201.838 494.871 213.857 488.724 230.83 479.733 239.637 463.586 244.499 458.723 245.876 442.943 246.885 436.246 246.243Z" fill="#FF7A1A" transform="matrix(1 0 0 -1.00214 -14.3442 433.645)"/><path d="M605.515 245.967C592.395 243.582 582.578 240.187 575.698 235.509 562.028 226.242 554.596 213.123 553.495 196.609L552.945 188.077 567.349 188.077 581.661 188.077 581.661 192.022C581.661 196.884 583.771 203.765 586.799 208.903 591.203 216.426 601.294 222.022 614.689 224.316 621.845 225.6 623.772 225.6 630.928 224.407 653.222 220.829 661.387 210.187 661.479 184.682L661.479 175.232 654.782 175.232C646.616 175.232 616.616 172.847 607.808 171.471 577.533 166.792 559.918 158.718 551.661 145.507 546.156 136.975 543.679 120.919 545.697 108.442 549.459 86.24 568.817 71.2856 595.515 70.0012 617.441 68.9002 636.341 75.5976 654.231 91.0107 658.176 94.497 661.571 97.2493 661.846 97.2493 662.029 97.2493 662.396 92.2034 662.58 86.0565 662.763 79.8178 663.222 74.2214 663.589 73.5792 664.139 72.7535 667.993 72.4783 677.626 72.4783L690.929 72.4783 690.562 137.892C690.195 210.003 690.47 206.884 684.232 219.27 678.176 231.288 665.057 240.738 649.093 244.591 641.937 246.334 612.763 247.16 605.515 245.967ZM661.295 138.351 661.479 121.195 655.791 115.14C641.754 100.093 625.515 92.6621 606.707 92.6621 590.469 92.6621 580.56 98.1668 576.156 109.727 571.202 123.03 576.34 137.25 588.634 144.498 600.285 151.287 626.708 155.782 653.681 155.599L661.02 155.507 661.295 138.351Z" fill="#FF7A1A" transform="matrix(1 0 0 -1.00214 -14.3442 433.645)"/><path d="M884.877 246.243C883.868 245.967 880.198 245.142 876.62 244.408 851.941 238.811 833.592 219.82 825.977 191.746 819.922 169.177 821.023 139.177 828.729 117.8 839.831 87.1574 866.62 69.7259 902.4 69.7259 918.364 69.7259 930.933 72.2948 941.667 77.616 956.53 85.0473 964.878 93.8548 970.291 107.616 972.493 113.121 974.787 126.149 973.778 127.617 973.502 128.076 966.897 128.443 959.099 128.443L944.97 128.443 944.97 125.965C944.97 118.259 940.474 108.442 934.419 102.846 927.171 96.1484 916.254 92.6621 902.584 92.6621 884.969 92.6621 871.391 99.2677 862.491 112.295 857.354 119.727 852.95 133.672 851.849 146.149L851.207 153.214 911.116 153.214C947.355 153.214 971.668 153.581 972.493 154.131 973.594 154.865 973.869 157.342 973.686 168.076 973.227 203.581 960.475 227.435 935.52 239.362 923.96 244.866 918.18 246.059 901.391 246.426 893.318 246.518 885.886 246.518 884.877 246.243ZM912.768 222.848C929.006 219.178 940.383 205.967 943.685 186.976 944.603 182.205 944.97 177.526 944.695 176.7 944.144 175.416 939.832 175.232 898.18 175.232L852.308 175.232 852.308 178.719C852.308 180.553 853.133 185.324 854.143 189.269 859.372 209.912 872.767 221.93 892.675 223.857 899.556 224.499 906.988 224.132 912.768 222.848Z" fill="#FF7A1A" transform="matrix(1 0 0 -1.00214 -14.3442 433.645)"/><path d="M746.067 158.535 746.343 72.937 760.563 72.937 774.784 72.937 775.059 158.535 775.242 244.041 760.563 244.041 745.884 244.041 746.067 158.535Z" fill="#FF7A1A" transform="matrix(1 0 0 -1.00214 -14.3442 433.645)"/></g></svg>