<?xml version="1.0" standalone="no"?>
<!DOCTYPE svg PUBLIC "-//W3C//DTD SVG 20010904//EN"
 "http://www.w3.org/TR/2001/REC-SVG-20010904/DTD/svg10.dtd">
<svg version="1.0" xmlns="http://www.w3.org/2000/svg"
 width="1045.696878pt" height="319.769706pt" viewBox="0 0 1045.696878 319.769706"
 preserveAspectRatio="xMidYMid meet">
<metadata>
Created by potrace 1.12, written by Peter Selinger 2001-2015
</metadata>
<g transform="translate(-15.977741,337.873717) scale(0.100000,-0.100000)"
fill="#FFFFFF" stroke="none">
<path d="M8204 3369 c-42 -12 -101 -79 -110 -124 -17 -91 21 -177 94 -212 52
-25 156 -24 201 2 134 79 132 264 -3 326 -44 20 -129 24 -182 8z"/>
<path d="M550 3301 c-97 -26 -163 -64 -235 -135 -72 -71 -127 -172 -145 -265
-14 -73 -14 -2228 0 -2302 31 -170 171 -326 351 -391 l64 -23 1105 -3 c1222
-3 1197 -4 1324 60 74 38 184 144 219 213 14 28 34 78 44 110 17 57 18 121 18
1185 0 1064 -1 1128 -18 1185 -58 187 -192 320 -370 366 -67 18 -131 19 -1181
18 -1032 0 -1116 -1 -1176 -18z m1562 -642 c142 -38 234 -115 301 -250 79
-162 87 -254 87 -1021 l0 -588 -47 -1 c-27 0 -88 -1 -138 -3 -49 -1 -100 0
-112 2 l-22 4 -4 652 c-4 685 -5 691 -51 798 -24 55 -72 106 -130 136 -47 24
-61 26 -166 26 -135 -1 -212 -18 -309 -69 -76 -41 -196 -137 -238 -191 l-28
-37 -3 -659 c-1 -362 -6 -658 -10 -658 -36 -1 -254 -2 -280 -1 l-32 1 2 928 3
927 151 3 151 3 7 -77 c3 -42 6 -98 6 -123 0 -74 10 -77 66 -20 94 97 235 184
349 214 130 36 324 38 447 4z"/>
<path d="M4755 2684 c-182 -20 -343 -97 -493 -238 -29 -27 -54 -47 -57 -44 -3
3 -8 62 -12 131 l-6 127 -154 0 -153 0 0 -935 0 -936 158 3 157 3 3 661 2 661
36 41 c52 62 170 155 240 190 89 45 174 64 295 65 116 1 160 -11 231 -65 40
-31 81 -108 100 -186 8 -32 13 -262 17 -707 l6 -660 160 0 160 0 0 645 c0 694
-4 760 -51 891 -67 185 -165 281 -341 334 -53 15 -225 26 -298 19z"/>
<path d="M6600 2681 c-143 -26 -250 -63 -325 -114 -149 -101 -230 -244 -242
-424 l-6 -93 157 0 156 0 0 43 c0 53 23 128 56 184 48 82 158 143 304 168 78
14 99 14 177 1 243 -39 332 -155 333 -433 l0 -103 -73 0 c-89 0 -416 -26 -512
-41 -330 -51 -522 -139 -612 -283 -60 -93 -87 -268 -65 -404 41 -242 252 -405
543 -419 239 -12 445 61 640 229 43 38 80 68 83 68 2 0 6 -55 8 -122 2 -68 7
-129 11 -136 6 -9 48 -12 153 -12 l145 0 -4 713 c-4 786 -1 752 -69 887 -66
131 -209 234 -383 276 -78 19 -396 28 -475 15z m608 -1173 l2 -187 -62 -66
c-153 -164 -330 -245 -535 -245 -177 0 -285 60 -333 186 -54 145 2 300 136
379 127 74 415 123 709 121 l80 -1 3 -187z"/>
<path d="M9645 2684 c-11 -3 -51 -12 -90 -20 -269 -61 -469 -268 -552 -574
-66 -246 -54 -573 30 -806 121 -334 413 -524 803 -524 174 0 311 28 428 86
162 81 253 177 312 327 24 60 49 202 38 218 -3 5 -75 9 -160 9 l-154 0 0 -27
c0 -84 -49 -191 -115 -252 -79 -73 -198 -111 -347 -111 -192 0 -340 72 -437
214 -56 81 -104 233 -116 369 l-7 77 653 0 c395 0 660 4 669 10 12 8 15 35 13
152 -5 387 -144 647 -416 777 -126 60 -189 73 -372 77 -88 1 -169 1 -180 -2z
m304 -255 c177 -40 301 -184 337 -391 10 -52 14 -103 11 -112 -6 -14 -53 -16
-507 -16 l-500 0 0 38 c0 20 9 72 20 115 57 225 203 356 420 377 75 7 156 3
219 -11z"/>
<path d="M8132 1728 l3 -933 155 0 155 0 3 933 2 932 -160 0 -160 0 2 -932z"/>
</g>
</svg>
