<?xml version="1.0" standalone="no"?>
<!DOCTYPE svg PUBLIC "-//W3C//DTD SVG 20010904//EN"
 "http://www.w3.org/TR/2001/REC-SVG-20010904/DTD/svg10.dtd">
<svg version="1.0" xmlns="http://www.w3.org/2000/svg"
 width="1222.143899pt" height="531.974890pt" viewBox="0 0 1222.143899 531.974890"
 preserveAspectRatio="xMidYMid meet">
<metadata>
Created by potrace 1.12, written by Peter Selinger 2001-2015
</metadata>
<g transform="translate(-219.856101,704.803748) scale(0.100000,-0.100000)"
fill="#3D148A" stroke="none">
<path d="M11606 7036 c-148 -55 -183 -258 -63 -363 98 -86 286 -65 354 38 70
105 38 249 -69 309 -52 29 -164 37 -222 16z"/>
<path d="M2681 6955 c-230 -50 -417 -238 -466 -471 -22 -103 -22 -2584 0
-2689 48 -232 238 -422 470 -470 105 -22 2585 -22 2690 0 233 49 421 237 470
470 22 105 22 2585 0 2690 -49 233 -237 421 -470 470 -101 21 -2596 21 -2694
0z m1816 -748 c45 -13 107 -39 138 -58 160 -96 265 -293 295 -554 6 -53 10
-392 10 -827 l0 -738 -190 0 -190 0 0 744 c0 809 -2 835 -56 956 -30 66 -101
140 -158 164 -130 54 -385 33 -537 -45 -63 -31 -193 -135 -257 -204 l-62 -66
0 -774 0 -775 -190 0 -190 0 0 1090 0 1090 179 0 178 0 7 -52 c3 -29 6 -94 6
-145 0 -135 0 -135 89 -51 140 134 290 219 444 252 106 23 129 25 272 21 100
-3 149 -9 212 -28z"/>
<path d="M9830 6240 c-276 -22 -469 -103 -604 -252 -98 -108 -150 -241 -163
-410 l-6 -88 179 0 180 0 11 85 c27 196 136 314 344 371 97 27 283 25 374 -3
141 -45 221 -114 265 -229 34 -91 54 -370 28 -379 -7 -2 -119 -9 -248 -15
-376 -18 -652 -61 -818 -126 -283 -112 -411 -292 -412 -577 -1 -399 302 -649
755 -624 249 15 444 99 649 281 l83 75 7 -61 c3 -34 6 -91 6 -128 0 -37 3 -82
6 -99 l7 -31 174 0 174 0 -4 803 c-3 721 -5 810 -21 877 -61 258 -202 410
-449 484 -141 42 -342 60 -517 46z m610 -1377 l0 -226 -97 -97 c-185 -182
-362 -260 -593 -260 -128 0 -203 18 -275 65 -94 63 -137 150 -139 280 -1 103
21 169 81 235 128 143 434 218 936 228 l87 2 0 -227z"/>
<path d="M13340 6240 c-230 -22 -403 -99 -553 -247 -197 -194 -297 -490 -297
-876 0 -591 277 -1000 743 -1098 242 -51 526 -31 730 52 227 91 383 267 437
490 11 46 20 105 20 132 l0 47 -182 -2 -183 -3 -7 -60 c-20 -181 -130 -310
-313 -368 -59 -19 -93 -22 -220 -22 -130 0 -159 3 -220 23 -253 84 -398 310
-430 670 l-7 82 776 0 776 0 6 27 c4 14 4 99 1 187 -17 432 -174 719 -477 871
-157 79 -386 115 -600 95z m319 -304 c145 -40 254 -131 320 -268 41 -85 71
-210 71 -294 l0 -44 -591 0 -592 0 6 75 c13 148 90 318 184 406 80 75 167 117
289 139 66 12 247 4 313 -14z"/>
<path d="M7560 6234 c-73 -9 -182 -36 -242 -61 -86 -34 -215 -123 -308 -210
l-78 -73 -6 31 c-3 17 -6 73 -6 123 0 50 -3 108 -6 129 l-7 37 -178 0 -179 0
0 -1090 0 -1090 190 0 190 0 0 776 0 776 78 77 c172 172 300 239 499 261 100
11 216 0 279 -26 58 -24 128 -98 158 -164 59 -131 59 -128 63 -947 l5 -753
184 0 184 0 0 743 c0 479 -4 774 -11 832 -24 198 -84 346 -180 450 -115 123
-248 174 -464 180 -71 2 -146 1 -165 -1z"/>
<path d="M11520 5120 l0 -1090 185 0 185 0 0 1090 0 1090 -185 0 -185 0 0
-1090z"/>
<path d="M2230 2380 l0 -420 50 0 50 0 2 332 3 333 229 -333 230 -332 58 0 58
0 0 420 0 420 -55 0 -55 0 0 -327 c-1 -312 -2 -327 -18 -307 -9 12 -111 159
-227 328 l-210 305 -57 1 -58 0 0 -420z"/>
<path d="M4870 2380 l0 -420 55 0 55 0 0 156 0 157 82 -89 c46 -49 112 -120
148 -157 l65 -68 62 3 62 3 -144 155 c-80 85 -145 159 -145 165 0 5 62 72 137
147 l138 138 -65 0 -65 0 -137 -142 -137 -143 -1 258 0 257 -55 0 -55 0 0
-420z"/>
<path d="M5975 2788 c-2 -7 -72 -194 -155 -416 -82 -221 -150 -405 -150 -408
0 -3 26 -4 58 -2 l57 3 40 113 40 112 176 0 176 0 39 -115 39 -115 58 0 c51 0
58 2 53 18 -3 9 -73 197 -154 417 l-148 400 -62 3 c-44 2 -64 -1 -67 -10z
m134 -295 c35 -98 66 -184 68 -190 4 -10 -27 -13 -137 -13 -110 0 -141 3 -137
13 2 6 33 92 68 190 35 97 66 177 69 177 3 0 34 -80 69 -177z"/>
<path d="M6530 2380 l0 -420 55 0 55 0 0 420 0 420 -55 0 -55 0 0 -420z"/>
<path d="M7297 2483 c-4 -174 -7 -363 -7 -420 l0 -103 270 0 270 0 0 45 0 45
-210 0 -210 0 0 150 0 150 195 0 195 0 0 45 0 45 -195 0 -195 0 0 135 0 135
210 0 210 0 0 45 0 45 -263 0 -264 0 -6 -317z"/>
<path d="M8414 2775 c-19 -29 -11 -60 21 -81 43 -28 95 2 95 55 0 52 -86 72
-116 26z"/>
<path d="M8720 2380 l0 -420 50 0 50 0 0 158 0 157 48 -50 c26 -27 92 -99 148
-158 l100 -108 65 3 64 3 -149 158 -148 159 43 46 c24 26 86 91 139 145 l95
97 -62 0 -61 0 -141 -142 -141 -143 0 258 0 257 -50 0 -50 0 0 -420z"/>
<path d="M9340 2380 l0 -420 55 0 55 0 0 155 0 155 72 -77 c40 -43 107 -113
148 -156 l75 -78 62 3 61 3 -148 160 -148 160 136 140 137 140 -60 3 -60 4
-137 -144 -137 -143 -1 258 0 257 -55 0 -55 0 0 -420z"/>
<path d="M10087 2790 c-16 -5 -35 -15 -44 -22 -28 -23 -53 -91 -53 -145 l0
-53 -50 0 -50 0 0 -45 0 -45 50 0 50 0 0 -260 0 -260 50 0 50 0 0 260 0 259
73 3 72 3 3 43 3 42 -75 0 -76 0 0 28 c0 86 31 122 106 122 33 0 34 1 34 40
l0 40 -57 -1 c-32 0 -71 -5 -86 -9z"/>
<path d="M12847 2788 c-29 -22 -19 -79 16 -96 53 -26 109 27 83 79 -14 28 -70
38 -99 17z"/>
<path d="M8020 2640 l0 -70 -50 0 -50 0 0 -45 0 -45 49 0 49 0 4 -197 c3 -172
6 -203 23 -237 31 -62 62 -79 155 -84 l80 -5 0 46 0 45 -56 0 c-89 -1 -88 -2
-92 232 l-3 200 75 0 76 0 0 45 0 45 -75 0 -75 0 0 70 0 70 -55 0 -55 0 0 -70z"/>
<path d="M14265 2635 c-22 -8 -53 -29 -70 -48 -26 -30 -33 -33 -55 -25 -42 16
-170 5 -215 -18 -112 -58 -140 -219 -56 -312 l30 -32 -22 -11 c-63 -32 -75
-98 -27 -144 l30 -29 -34 -27 c-94 -78 -60 -203 66 -245 58 -19 213 -21 277
-4 106 28 168 102 158 188 -11 101 -65 130 -270 146 -115 9 -151 16 -164 29
-16 16 -16 18 5 40 20 20 30 22 111 19 98 -4 146 10 194 56 45 42 60 81 61
149 0 52 -5 70 -32 112 -30 49 -30 51 -12 61 11 6 40 13 65 16 l45 7 0 43 c0
39 -3 44 -22 44 -13 -1 -41 -7 -63 -15z m-134 -152 c30 -18 59 -76 59 -119 0
-42 -27 -93 -62 -114 -62 -38 -157 -18 -191 39 -20 34 -22 116 -3 149 32 59
134 82 197 45z m45 -504 c74 -19 95 -73 49 -127 -55 -65 -246 -72 -312 -10
-40 37 -28 104 25 132 33 18 173 21 238 5z"/>
<path d="M3270 2565 c-64 -20 -114 -66 -147 -133 -26 -52 -28 -67 -28 -167 0
-100 2 -115 28 -167 51 -105 147 -156 274 -145 176 14 272 137 261 335 -8 133
-55 214 -151 263 -53 28 -174 35 -237 14z m162 -75 c44 -13 93 -66 107 -117
14 -49 14 -167 0 -216 -34 -123 -191 -167 -281 -78 -47 47 -61 102 -56 211 6
114 36 171 105 195 46 17 77 18 125 5z"/>
<path d="M4062 2568 c-29 -6 -56 -22 -82 -48 -36 -36 -38 -37 -44 -17 -3 12
-6 32 -6 45 0 20 -5 22 -50 22 l-50 0 0 -305 0 -305 55 0 55 0 0 219 0 220 38
30 c38 33 87 51 135 51 26 0 27 2 27 50 0 56 0 56 -78 38z"/>
<path d="M4352 2561 c-106 -37 -146 -113 -108 -205 24 -58 68 -83 229 -131
104 -31 127 -50 127 -104 0 -65 -40 -91 -139 -91 -76 0 -120 28 -139 88 -14
42 -14 42 -63 42 l-50 0 7 -37 c20 -113 107 -173 249 -173 81 0 138 17 183 56
73 62 78 177 9 240 -34 32 -57 41 -212 91 -76 24 -92 32 -104 57 -48 101 165
151 233 54 9 -12 16 -33 16 -45 0 -21 5 -23 50 -23 47 0 50 2 50 25 0 130
-177 212 -338 156z"/>
<path d="M10489 2567 c-97 -36 -148 -94 -174 -194 -44 -167 12 -331 132 -390
50 -24 70 -28 143 -28 75 0 91 4 140 30 60 33 111 98 130 163 5 20 10 73 10
117 0 98 -11 139 -53 202 -46 69 -118 105 -217 110 -47 2 -89 -2 -111 -10z
m150 -77 c67 -19 106 -74 122 -171 29 -179 -64 -306 -208 -284 -91 13 -143 97
-143 231 0 171 94 263 229 224z"/>
<path d="M11287 2570 c-41 -8 -92 -41 -117 -74 -14 -20 -15 -19 -20 24 l-5 45
-52 3 -53 3 0 -305 0 -306 55 0 55 0 0 216 0 216 35 33 c37 33 92 55 139 55
25 0 26 3 26 50 0 54 1 53 -63 40z"/>
<path d="M11599 2564 c-107 -32 -171 -143 -172 -294 -2 -195 90 -307 259 -318
149 -10 274 74 274 183 0 23 -3 25 -49 25 -47 0 -49 -1 -55 -33 -19 -104 -193
-133 -273 -46 -26 29 -53 100 -53 140 l0 29 216 0 217 0 -5 78 c-3 46 -12 91
-22 112 -59 116 -198 167 -337 124z m176 -84 c45 -22 70 -56 80 -112 l7 -38
-166 0 c-152 0 -166 2 -166 18 1 26 35 95 58 115 44 39 125 47 187 17z"/>
<path d="M12385 2571 c-44 -11 -87 -35 -115 -66 l-25 -27 -5 44 -5 43 -52 3
-53 3 0 -305 0 -306 55 0 55 0 0 219 0 219 42 36 c67 58 163 74 211 36 40 -32
47 -77 47 -302 l0 -208 50 0 50 0 0 228 c0 134 -5 243 -11 267 -26 93 -131
143 -244 116z"/>
<path d="M13395 2571 c-37 -9 -70 -26 -112 -57 l-31 -24 -7 40 -7 40 -49 0
-49 0 0 -305 0 -305 55 0 55 0 0 219 0 219 42 36 c48 42 106 60 161 53 84 -11
97 -54 97 -326 l0 -201 50 0 50 0 0 221 c0 131 -5 238 -11 265 -26 102 -127
153 -244 125z"/>
<path d="M8410 2265 l0 -305 55 0 55 0 0 305 0 305 -55 0 -55 0 0 -305z"/>
<path d="M12840 2265 l0 -305 50 0 50 0 0 305 0 305 -50 0 -50 0 0 -305z"/>
<path d="M6810 2270 l0 -50 155 0 155 0 0 50 0 50 -155 0 -155 0 0 -50z"/>
</g>
</svg>
