<svg width="463" height="201" xmlns="http://www.w3.org/2000/svg" xmlns:xlink="http://www.w3.org/1999/xlink" xml:space="preserve" overflow="hidden"><g transform="translate(-40 -79)"><path d="M438.518 265.846C432.926 263.768 431.604 256.098 436.138 252.131 439.84 248.881 446.944 249.675 449.513 253.567 452.158 257.534 450.949 262.975 446.906 265.242 444.941 266.338 440.709 266.64 438.518 265.846Z" fill="#FF7A1A" transform="matrix(1.00194 0 0 -1 -43.0653 345.301)"/><path d="M101.298 262.786C92.6079 260.897 85.5424 253.793 83.691 244.99 82.8597 241.098 82.8597 147.357 83.691 143.389 85.5046 134.623 92.6835 127.445 101.449 125.631 105.417 124.8 199.12 124.8 203.088 125.631 211.891 127.482 218.995 134.586 220.846 143.389 221.677 147.357 221.677 241.06 220.846 245.027 218.995 253.831 211.891 260.934 203.088 262.786 199.271 263.579 105.001 263.579 101.298 262.786ZM169.913 234.524C171.614 234.032 173.956 233.05 175.128 232.332 181.173 228.705 185.14 221.262 186.274 211.4 186.5 209.397 186.652 196.589 186.652 180.153L186.652 152.268 179.473 152.268 172.294 152.268 172.294 180.38C172.294 210.947 172.218 211.929 170.178 216.501 169.044 218.995 166.362 221.79 164.208 222.697 159.296 224.738 149.661 223.944 143.918 220.997 141.538 219.826 136.626 215.896 134.208 213.289L131.865 210.795 131.865 181.551 131.865 152.268 124.686 152.268 117.507 152.268 117.507 193.453 117.507 234.637 124.271 234.637 130.996 234.637 131.261 232.672C131.374 231.576 131.487 229.121 131.487 227.194 131.487 222.093 131.487 222.093 134.85 225.267 140.14 230.33 145.807 233.541 151.626 234.788 155.631 235.657 156.5 235.733 161.903 235.582 165.682 235.468 167.533 235.242 169.913 234.524Z" fill="#FF7A1A" transform="matrix(1.00194 0 0 -1 -43.0653 345.301)"/><path d="M371.414 235.77C360.986 234.939 353.694 231.879 348.593 226.249 344.89 222.168 342.925 217.143 342.434 210.758L342.207 207.433 348.971 207.433 355.772 207.433 356.187 210.644C357.207 218.05 361.326 222.508 369.185 224.662 372.85 225.682 379.878 225.607 383.316 224.549 388.643 222.848 391.666 220.241 393.329 215.896 394.613 212.458 395.369 201.916 394.387 201.576 394.122 201.501 389.89 201.236 385.016 201.009 370.81 200.329 360.381 198.705 354.109 196.249 343.416 192.017 338.58 185.216 338.542 174.447 338.504 159.372 349.953 149.926 367.069 150.87 376.477 151.437 383.845 154.611 391.591 161.488L394.727 164.321 394.991 162.017C395.104 160.732 395.218 158.578 395.218 157.18 395.218 155.782 395.331 154.082 395.445 153.44L395.709 152.268 402.283 152.268 408.858 152.268 408.707 182.609C408.593 209.851 408.518 213.214 407.913 215.745 405.608 225.493 400.281 231.236 390.948 234.032 385.621 235.619 378.026 236.299 371.414 235.77ZM394.462 183.742 394.462 175.203 390.797 171.538C383.807 164.661 377.119 161.714 368.391 161.714 363.555 161.714 360.721 162.394 358.001 164.17 354.449 166.551 352.824 169.838 352.749 174.75 352.711 178.641 353.542 181.135 355.809 183.629 360.646 189.032 372.208 191.866 391.175 192.244L394.462 192.319 394.462 183.742Z" fill="#FF7A1A" transform="matrix(1.00194 0 0 -1 -43.0653 345.301)"/><path d="M504.035 235.77C495.345 234.939 488.808 232.03 483.141 226.438 475.697 219.108 471.919 207.924 471.919 193.339 471.919 171.009 482.385 155.556 499.992 151.853 509.136 149.926 519.866 150.682 527.574 153.818 536.151 157.256 542.045 163.906 544.086 172.332 544.501 174.07 544.841 176.299 544.841 177.319L544.841 179.095 537.965 179.019 531.05 178.906 530.786 176.639C530.03 169.8 525.874 164.926 518.96 162.735 516.73 162.017 515.446 161.903 510.647 161.903 505.735 161.903 504.639 162.017 502.335 162.772 492.775 165.946 487.297 174.485 486.088 188.087L485.823 191.186 515.143 191.186 544.464 191.186 544.69 192.206C544.841 192.735 544.841 195.946 544.728 199.271 544.086 215.594 538.154 226.438 526.705 232.181 520.773 235.166 512.121 236.526 504.035 235.77ZM516.088 224.284C521.567 222.773 525.685 219.335 528.179 214.158 529.728 210.947 530.861 206.224 530.861 203.05L530.861 201.387 508.531 201.387 486.163 201.387 486.39 204.221C486.881 209.813 489.79 216.236 493.342 219.561 496.365 222.395 499.652 223.982 504.262 224.813 506.755 225.267 513.594 224.964 516.088 224.284Z" fill="#FF7A1A" transform="matrix(1.00194 0 0 -1 -43.0653 345.301)"/><path d="M285.645 235.544C282.887 235.204 278.768 234.184 276.501 233.239 273.252 231.954 268.378 228.592 264.864 225.304L261.917 222.546 261.69 223.717C261.577 224.36 261.463 226.476 261.463 228.365 261.463 230.254 261.35 232.446 261.237 233.239L260.972 234.637 254.247 234.637 247.483 234.637 247.483 193.453 247.483 152.268 254.662 152.268 261.841 152.268 261.841 181.589 261.841 210.909 264.788 213.818C271.287 220.317 276.124 222.848 283.642 223.68 287.421 224.095 291.804 223.68 294.184 222.697 296.376 221.79 299.02 218.995 300.154 216.501 302.383 211.551 302.383 211.664 302.534 180.72L302.723 152.268 309.675 152.268 316.628 152.268 316.628 180.342C316.628 198.44 316.477 209.586 316.212 211.778 315.305 219.259 313.038 224.851 309.411 228.78 305.066 233.428 300.041 235.355 291.879 235.582 289.197 235.657 286.363 235.619 285.645 235.544Z" fill="#FF7A1A" transform="matrix(1.00194 0 0 -1 -43.0653 345.301)"/><path d="M435.269 193.453 435.269 152.268 442.259 152.268 449.249 152.268 449.249 193.453 449.249 234.637 442.259 234.637 435.269 234.637 435.269 193.453Z" fill="#FF7A1A" transform="matrix(1.00194 0 0 -1 -43.0653 345.301)"/><path d="M84.2577 89.9253 84.2577 74.0561 86.1469 74.0561 88.0361 74.0561 88.1117 86.6003 88.225 99.1823 96.8775 86.6003 105.568 74.0561 107.759 74.0561 109.951 74.0561 109.951 89.9253 109.951 105.794 107.873 105.794 105.794 105.794 105.794 93.4392C105.757 81.6506 105.719 81.0839 105.114 81.8396 104.774 82.293 100.92 87.8472 96.5374 94.2326L88.6029 105.757 86.4492 105.794 84.2577 105.794 84.2577 89.9253Z" fill="#FF7A1A" transform="matrix(1.00194 0 0 -1 -43.0653 345.301)"/><path d="M184.007 89.9253 184.007 74.0561 186.085 74.0561 188.163 74.0561 188.163 79.9504 188.163 85.8824 191.261 82.5197C192.999 80.6683 195.493 77.9856 196.853 76.5876L199.309 74.0183 201.652 74.1317 203.994 74.245 198.554 80.1015C195.531 83.3131 193.075 86.1091 193.075 86.3358 193.075 86.5247 195.417 89.0563 198.251 91.89L203.465 97.1042 201.009 97.1042 198.554 97.1042 193.377 91.7389 188.201 86.3358 188.163 96.084 188.163 105.794 186.085 105.794 184.007 105.794 184.007 89.9253Z" fill="#FF7A1A" transform="matrix(1.00194 0 0 -1 -43.0653 345.301)"/><path d="M225.758 105.341C225.682 105.077 223.037 98.011 219.901 89.623 216.803 81.2728 214.234 74.3206 214.234 74.2072 214.234 74.0939 215.216 74.0561 216.425 74.1317L218.579 74.245 220.09 78.5146 221.602 82.7464 228.252 82.7464 234.901 82.7464 236.375 78.4012 237.849 74.0561 240.04 74.0561C241.967 74.0561 242.231 74.1317 242.043 74.7362 241.929 75.0763 239.284 82.1796 236.224 90.492L230.632 105.606 228.289 105.719C226.627 105.794 225.871 105.681 225.758 105.341ZM230.821 94.1948C232.143 90.492 233.315 87.2426 233.39 87.0159 233.541 86.6381 232.37 86.5247 228.214 86.5247 224.058 86.5247 222.886 86.6381 223.037 87.0159 223.113 87.2426 224.284 90.492 225.607 94.1948 226.929 97.8599 228.1 100.883 228.214 100.883 228.327 100.883 229.498 97.8599 230.821 94.1948Z" fill="#FF7A1A" transform="matrix(1.00194 0 0 -1 -43.0653 345.301)"/><path d="M246.728 89.9253 246.728 74.0561 248.806 74.0561 250.884 74.0561 250.884 89.9253 250.884 105.794 248.806 105.794 246.728 105.794 246.728 89.9253Z" fill="#FF7A1A" transform="matrix(1.00194 0 0 -1 -43.0653 345.301)"/><path d="M275.708 93.817C275.557 87.2426 275.443 80.1015 275.443 77.9478L275.443 74.0561 285.645 74.0561 295.847 74.0561 295.847 75.7564 295.847 77.4566 287.912 77.4566 279.977 77.4566 279.977 83.1242 279.977 88.7918 287.345 88.7918 294.713 88.7918 294.713 90.492 294.713 92.1923 287.345 92.1923 279.977 92.1923 279.977 97.2931 279.977 102.394 287.912 102.394 295.847 102.394 295.847 104.094 295.847 105.794 285.909 105.794 275.935 105.794 275.708 93.817Z" fill="#FF7A1A" transform="matrix(1.00194 0 0 -1 -43.0653 345.301)"/><path d="M317.912 104.85C317.194 103.754 317.497 102.583 318.706 101.789 320.33 100.731 322.295 101.865 322.295 103.867 322.295 105.832 319.046 106.588 317.912 104.85Z" fill="#FF7A1A" transform="matrix(1.00194 0 0 -1 -43.0653 345.301)"/><path d="M329.474 89.9253 329.474 74.0561 331.363 74.0561 333.253 74.0561 333.253 80.0259 333.253 85.958 335.066 84.0688C336.048 83.0486 338.542 80.3282 340.658 78.099L344.436 74.0183 346.892 74.1317 349.311 74.245 343.681 80.2149 338.089 86.2225 339.714 87.9605C340.62 88.9429 342.963 91.3988 344.965 93.4392L348.555 97.1042 346.212 97.1042 343.908 97.1042 338.58 91.7389 333.253 86.3358 333.253 96.084 333.253 105.794 331.363 105.794 329.474 105.794 329.474 89.9253Z" fill="#FF7A1A" transform="matrix(1.00194 0 0 -1 -43.0653 345.301)"/><path d="M352.9 89.9253 352.9 74.0561 354.978 74.0561 357.056 74.0561 357.056 79.9126 357.056 85.7691 359.777 82.8597C361.288 81.235 363.82 78.5902 365.369 76.9655L368.202 74.0183 370.545 74.1317 372.85 74.245 367.258 80.2904 361.666 86.3358 366.804 91.6255 371.981 96.9153 369.714 97.0286 367.447 97.1798 362.27 91.7389 357.094 86.3358 357.056 96.084 357.056 105.794 354.978 105.794 352.9 105.794 352.9 89.9253Z" fill="#FF7A1A" transform="matrix(1.00194 0 0 -1 -43.0653 345.301)"/><path d="M381.124 105.417C380.52 105.228 379.802 104.85 379.462 104.585 378.404 103.716 377.459 101.147 377.459 99.1067L377.459 97.1042 375.57 97.1042 373.681 97.1042 373.681 95.4039 373.681 93.7037 375.57 93.7037 377.459 93.7037 377.459 83.8799 377.459 74.0561 379.349 74.0561 381.238 74.0561 381.238 83.8799 381.238 93.6659 383.996 93.7792 386.716 93.8926 386.83 95.5173 386.943 97.1042 384.109 97.1042 381.238 97.1042 381.238 98.1621C381.238 101.412 382.409 102.772 385.243 102.772 386.49 102.772 386.528 102.81 386.528 104.283L386.528 105.794 384.374 105.757C383.165 105.757 381.691 105.568 381.124 105.417Z" fill="#FF7A1A" transform="matrix(1.00194 0 0 -1 -43.0653 345.301)"/><path d="M485.408 105.341C484.312 104.51 484.69 102.356 486.012 101.714 488.015 100.731 490.131 102.734 489.148 104.699 488.619 105.757 486.503 106.134 485.408 105.341Z" fill="#FF7A1A" transform="matrix(1.00194 0 0 -1 -43.0653 345.301)"/><path d="M303.026 99.749 303.026 97.1042 301.136 97.1042 299.247 97.1042 299.247 95.4039 299.247 93.7037 301.099 93.7037 302.95 93.7037 303.101 86.2603C303.214 79.7615 303.328 78.5902 303.97 77.3055 305.141 74.9629 306.313 74.3206 309.827 74.1317L312.849 73.9428 312.849 75.6808 312.849 77.3811 310.733 77.3811C307.371 77.3433 307.408 77.3055 307.257 86.1469L307.144 93.7037 309.978 93.7037 312.849 93.7037 312.849 95.4039 312.849 97.1042 310.016 97.1042 307.182 97.1042 307.182 99.749 307.182 102.394 305.104 102.394 303.026 102.394 303.026 99.749Z" fill="#FF7A1A" transform="matrix(1.00194 0 0 -1 -43.0653 345.301)"/><path d="M538.985 99.5601C538.154 99.2579 536.982 98.4644 536.34 97.7465 535.358 96.613 535.093 96.4996 534.262 96.8019 532.675 97.4065 527.839 96.9908 526.138 96.1218 521.907 93.9304 520.849 87.8472 524.023 84.3333L525.156 83.1242 524.325 82.7086C521.944 81.4995 521.491 79.0058 523.305 77.2677L524.438 76.172 523.154 75.1518C519.602 72.2047 520.887 67.4817 525.647 65.8948 527.839 65.1769 533.695 65.1014 536.113 65.7437 540.118 66.8016 542.461 69.5976 542.083 72.847 541.668 76.6632 539.627 77.7589 531.882 78.3635 527.536 78.7035 526.176 78.968 525.685 79.4592 525.081 80.0637 525.081 80.1393 525.874 80.9705 526.63 81.7262 527.008 81.8018 530.068 81.6884 533.771 81.5373 535.584 82.0663 537.398 83.8043 539.098 85.3912 539.665 86.8648 539.703 89.4341 539.703 91.3988 539.514 92.0789 538.494 93.6659 537.36 95.5173 537.36 95.5928 538.04 95.9707 538.456 96.1974 539.552 96.4619 540.496 96.5752L542.197 96.8397 542.197 98.4644C542.197 99.938 542.083 100.127 541.365 100.127 540.874 100.089 539.816 99.8624 538.985 99.5601ZM533.922 93.817C535.055 93.1369 536.151 90.9454 536.151 89.3207 536.151 87.7338 535.131 85.8069 533.809 85.0134 531.466 83.5776 527.877 84.3333 526.592 86.487 525.836 87.7716 525.761 90.8699 526.479 92.1167 527.688 94.346 531.542 95.215 533.922 93.817ZM535.622 74.774C538.418 74.0561 539.212 72.0158 537.474 69.9755 535.395 67.5195 528.179 67.255 525.685 69.5976 524.174 70.9956 524.627 73.5271 526.63 74.5851 527.877 75.2652 533.166 75.3785 535.622 74.774Z" fill="#FF7A1A" transform="matrix(1.00194 0 0 -1 -43.0653 345.301)"/><path d="M123.553 96.9153C121.135 96.1596 119.245 94.4215 117.999 91.89 117.016 89.9253 116.941 89.3585 116.941 85.5801 116.941 81.8018 117.016 81.235 117.999 79.2703 119.926 75.303 123.553 73.376 128.351 73.7916 135.001 74.3206 138.629 78.968 138.213 86.4492 137.911 91.4744 136.135 94.5349 132.508 96.3863 130.505 97.4442 125.933 97.7087 123.553 96.9153ZM129.674 94.0815C131.336 93.5903 133.188 91.5878 133.717 89.6608 134.246 87.8094 134.246 83.3509 133.717 81.4995 132.432 76.8521 126.5 75.1896 123.099 78.5524 121.324 80.3282 120.795 82.4063 120.984 86.5247 121.21 90.8321 122.344 92.9858 124.951 93.8926 126.689 94.5349 127.86 94.5727 129.674 94.0815Z" fill="#FF7A1A" transform="matrix(1.00194 0 0 -1 -43.0653 345.301)"/><path d="M153.478 97.0286C152.382 96.8019 151.362 96.1974 150.379 95.215 149.019 93.8548 148.943 93.817 148.717 94.5727 148.603 95.0261 148.49 95.7818 148.49 96.2729 148.49 97.0286 148.301 97.1042 146.601 97.1042L144.712 97.1042 144.712 85.5801 144.712 74.0561 146.79 74.0561 148.868 74.0561 148.868 82.3307 148.868 90.6432 150.304 91.7767C151.739 93.0235 153.591 93.7037 155.404 93.7037 156.387 93.7037 156.425 93.7792 156.425 95.5928 156.425 97.7087 156.425 97.7087 153.478 97.0286Z" fill="#FF7A1A" transform="matrix(1.00194 0 0 -1 -43.0653 345.301)"/><path d="M164.435 96.7641C160.43 95.3661 158.918 92.4946 160.354 89.0185 161.261 86.827 162.923 85.8824 169.007 84.0688 172.936 82.8975 173.805 82.1796 173.805 80.1393 173.805 77.6833 172.294 76.701 168.553 76.701 165.682 76.701 164.019 77.7589 163.301 80.0259 162.772 81.6129 162.772 81.6129 160.921 81.6129L159.032 81.6129 159.296 80.2149C160.052 75.9453 163.339 73.6783 168.704 73.6783 171.765 73.6783 173.919 74.3206 175.619 75.7942 178.377 78.1368 178.566 82.4819 175.959 84.8623 174.674 86.0713 173.805 86.4114 167.949 88.3006 165.077 89.2074 164.473 89.5097 164.019 90.4543 162.206 94.2704 170.253 96.1596 172.823 92.4946 173.163 92.0412 173.427 91.2477 173.427 90.7943 173.427 90.0008 173.616 89.9253 175.317 89.9253 177.092 89.9253 177.206 90.0008 177.206 90.8699 177.206 95.7818 170.518 98.88 164.435 96.7641Z" fill="#FF7A1A" transform="matrix(1.00194 0 0 -1 -43.0653 345.301)"/><path d="M396.314 96.9908C392.649 95.6306 390.722 93.4392 389.739 89.6608 388.077 83.3509 390.193 77.1544 394.727 74.9251 396.616 74.0183 397.371 73.8672 400.13 73.8672 402.964 73.8672 403.568 74.0183 405.419 75.0007 407.686 76.2476 409.613 78.7035 410.331 81.1595 410.52 81.9151 410.709 83.9177 410.709 85.5801 410.709 89.283 410.294 90.8321 408.707 93.2125 406.969 95.8195 404.248 97.1798 400.508 97.3687 398.732 97.4442 397.145 97.2931 396.314 96.9908ZM401.981 94.0815C404.513 93.3636 405.986 91.2855 406.591 87.6205 407.686 80.8572 404.173 76.0586 398.732 76.8899 395.293 77.3811 393.329 80.5549 393.329 85.6179 393.329 92.0789 396.88 95.5551 401.981 94.0815Z" fill="#FF7A1A" transform="matrix(1.00194 0 0 -1 -43.0653 345.301)"/><path d="M426.465 97.1042C424.916 96.8019 422.989 95.5551 422.044 94.3082 421.515 93.5525 421.478 93.5903 421.289 95.215L421.1 96.9153 419.135 97.0286 417.132 97.142 417.132 85.6179 417.132 74.0561 419.21 74.0561 421.289 74.0561 421.289 82.2174 421.289 90.3787 422.611 91.6255C424.009 92.8724 426.087 93.7037 427.863 93.7037 428.808 93.7037 428.845 93.817 428.845 95.5928 428.845 97.6332 428.883 97.5954 426.465 97.1042Z" fill="#FF7A1A" transform="matrix(1.00194 0 0 -1 -43.0653 345.301)"/><path d="M438.253 96.8775C434.211 95.6684 431.792 91.4744 431.755 85.7691 431.679 78.4012 435.155 74.1695 441.541 73.7538 447.17 73.376 451.893 76.5498 451.893 80.6683 451.893 81.5373 451.78 81.6129 450.042 81.6129 448.266 81.6129 448.191 81.5751 447.964 80.366 447.246 76.4365 440.672 75.3408 437.649 78.6279 436.667 79.7237 435.646 82.4063 435.646 83.9177L435.646 85.0134 443.808 85.0134 452.007 85.0134 451.818 87.9605C451.704 89.6986 451.364 91.3988 450.987 92.1923 448.757 96.5752 443.505 98.5022 438.253 96.8775ZM444.903 93.7037C446.604 92.8724 447.548 91.5878 447.926 89.4719L448.191 88.0361 441.919 88.0361C436.175 88.0361 435.646 88.1117 435.646 88.7162 435.684 89.6986 436.969 92.3057 437.838 93.0613 439.5 94.5349 442.561 94.8372 444.903 93.7037Z" fill="#FF7A1A" transform="matrix(1.00194 0 0 -1 -43.0653 345.301)"/><path d="M467.952 97.142C466.289 96.7263 464.664 95.8195 463.606 94.6482L462.662 93.6281 462.473 95.2906 462.284 96.9153 460.319 97.0286 458.317 97.142 458.317 85.6179 458.317 74.0561 460.395 74.0561 462.473 74.0561 462.473 82.3307 462.473 90.6054 464.06 91.9656C466.591 94.1571 470.219 94.7616 472.032 93.3258 473.543 92.1167 473.808 90.4165 473.808 81.9151L473.808 74.0561 475.697 74.0561 477.586 74.0561 477.586 82.6708C477.586 87.7338 477.397 91.8522 477.171 92.7591 476.188 96.2729 472.221 98.1621 467.952 97.142Z" fill="#FF7A1A" transform="matrix(1.00194 0 0 -1 -43.0653 345.301)"/><path d="M506.113 97.142C504.715 96.8019 503.468 96.1596 501.881 94.9883L500.71 94.0815 500.446 95.5928 500.181 97.1042 498.33 97.1042 496.478 97.1042 496.478 85.5801 496.478 74.0561 498.556 74.0561 500.634 74.0561 500.634 82.3307 500.634 90.6054 502.221 91.9656C504.035 93.5525 506.226 94.2326 508.305 93.9681 511.478 93.5525 511.97 91.9278 511.97 81.6506L511.97 74.0561 513.859 74.0561 515.748 74.0561 515.748 82.4063C515.748 87.356 515.559 91.3988 515.332 92.419 514.35 96.2729 510.534 98.1999 506.113 97.142Z" fill="#FF7A1A" transform="matrix(1.00194 0 0 -1 -43.0653 345.301)"/><path d="M317.761 85.5801 317.761 74.0561 319.839 74.0561 321.917 74.0561 321.917 85.5801 321.917 97.1042 319.839 97.1042 317.761 97.1042 317.761 85.5801Z" fill="#FF7A1A" transform="matrix(1.00194 0 0 -1 -43.0653 345.301)"/><path d="M485.143 85.5801 485.143 74.0561 487.032 74.0561 488.921 74.0561 488.921 85.5801 488.921 97.1042 487.032 97.1042 485.143 97.1042 485.143 85.5801Z" fill="#FF7A1A" transform="matrix(1.00194 0 0 -1 -43.0653 345.301)"/><path d="M257.307 85.7691 257.307 83.8799 263.164 83.8799 269.02 83.8799 269.02 85.7691 269.02 87.6583 263.164 87.6583 257.307 87.6583 257.307 85.7691Z" fill="#FF7A1A" transform="matrix(1.00194 0 0 -1 -43.0653 345.301)"/></g></svg>